<?xml version="1.0" standalone="no"?>
<!DOCTYPE svg PUBLIC "-//W3C//DTD SVG 20010904//EN"
 "http://www.w3.org/TR/2001/REC-SVG-20010904/DTD/svg10.dtd">
<svg version="1.0" xmlns="http://www.w3.org/2000/svg"
 width="512.000000pt" height="512.000000pt" viewBox="0 0 512.000000 512.000000"
 preserveAspectRatio="xMidYMid meet">

<g transform="translate(0.000000,512.000000) scale(0.100000,-0.100000)"
fill="#000000" stroke="none">
<path d="M0 2560 l0 -1860 2560 0 2560 0 0 1860 0 1860 -2560 0 -2560 0 0
-1860z m2433 43 c186 -566 337 -1031 337 -1035 0 -5 -123 -8 -273 -8 l-273 0
-44 168 c-24 92 -47 182 -52 200 l-9 32 -376 -2 -377 -3 -42 -155 c-23 -85
-47 -174 -53 -197 l-12 -43 -275 0 -276 0 6 23 c8 34 657 2031 663 2040 2 4
165 7 361 7 l357 0 338 -1027z m1447 657 c253 -52 415 -204 482 -455 19 -75
21 -115 29 -615 4 -294 11 -556 15 -582 l7 -48 -236 0 -235 0 -11 68 c-19 111
-14 108 -86 47 -121 -102 -245 -145 -419 -145 -176 0 -290 43 -398 152 -106
105 -148 210 -148 365 0 207 89 369 264 477 136 86 338 142 536 152 178 8 180
8 180 50 0 82 -61 152 -158 180 -133 39 -365 9 -535 -69 -66 -31 -77 -33 -81
-19 -54 185 -86 306 -84 314 6 16 152 76 241 100 200 52 465 64 637 28z"/>
<path d="M1591 2808 c-63 -189 -116 -349 -119 -355 -3 -10 55 -13 271 -13
l275 0 -117 353 -118 352 -39 3 -39 3 -114 -343z"/>
<path d="M3712 2349 c-131 -17 -236 -64 -280 -126 -29 -41 -46 -114 -38 -167
15 -99 92 -159 205 -159 108 0 194 49 249 142 25 43 27 55 30 184 l4 137 -54
-1 c-29 -1 -81 -5 -116 -10z"/>
</g>
</svg>
