<?xml version="1.0" standalone="no"?>
<!DOCTYPE svg PUBLIC "-//W3C//DTD SVG 20010904//EN"
 "http://www.w3.org/TR/2001/REC-SVG-20010904/DTD/svg10.dtd">
<svg version="1.0" xmlns="http://www.w3.org/2000/svg"
 width="512.000000pt" height="512.000000pt" viewBox="0 0 512.000000 512.000000"
 preserveAspectRatio="xMidYMid meet">

<g transform="translate(0.000000,512.000000) scale(0.100000,-0.100000)"
fill="#000000" stroke="none">
<path d="M555 5102 c-84 -40 -125 -104 -125 -197 0 -87 38 -148 120 -191 32
-17 61 -19 306 -19 l271 0 48 30 c71 44 109 118 102 198 -6 70 -39 125 -99
164 l-41 28 -271 3 c-247 2 -275 1 -311 -16z"/>
<path d="M1833 5095 c-132 -61 -160 -236 -54 -339 60 -59 100 -66 361 -66 271
0 306 7 368 74 66 72 77 157 32 246 -22 44 -68 82 -119 99 -22 7 -124 11 -285
11 -245 0 -252 -1 -303 -25z"/>
<path d="M3140 5107 c-76 -24 -140 -120 -140 -209 0 -83 80 -178 167 -199 58
-13 476 -11 531 3 66 16 135 87 151 154 24 98 -20 193 -110 238 l-53 26 -255
-1 c-157 -1 -269 -5 -291 -12z"/>
<path d="M4430 5107 c-47 -15 -116 -86 -129 -133 -40 -144 40 -258 198 -283
77 -13 120 -40 166 -106 49 -70 94 -98 165 -103 135 -10 231 74 232 204 1 78
-39 152 -132 245 -58 58 -96 86 -160 118 -127 62 -257 84 -340 58z"/>
<path d="M125 4482 c-51 -24 -101 -80 -114 -129 -6 -22 -11 -144 -11 -286 0
-201 3 -255 16 -285 33 -79 110 -132 194 -132 88 0 152 38 193 115 21 38 22
53 22 310 0 269 0 270 -25 315 -38 67 -96 103 -173 107 -45 3 -73 -1 -102 -15z"/>
<path d="M4830 4039 c-44 -18 -90 -59 -113 -102 -21 -41 -22 -51 -22 -312 0
-269 0 -270 25 -315 67 -119 225 -147 327 -57 68 60 73 81 73 362 0 144 -5
266 -11 288 -13 49 -63 105 -114 128 -43 20 -125 24 -165 8z"/>
<path d="M915 3826 c-111 -35 -190 -104 -239 -206 l-31 -65 0 -995 0 -995 31
-65 c39 -83 101 -145 184 -184 l65 -31 1635 0 1635 0 67 32 c82 39 142 99 182
183 l31 65 0 995 0 995 -31 65 c-40 84 -100 144 -182 183 l-67 32 -1620 2
c-1289 1 -1628 -1 -1660 -11z m3227 -323 c17 -15 18 -44 18 -500 l0 -483 -402
322 c-222 177 -419 330 -438 340 -39 21 -74 23 -118 7 -17 -6 -235 -170 -484
-364 -376 -294 -455 -351 -468 -342 -8 7 -95 72 -193 146 -168 127 -181 135
-231 139 -32 3 -63 -1 -77 -8 -13 -7 -194 -120 -401 -252 -208 -131 -380 -238
-383 -238 -3 0 -5 273 -5 607 0 550 2 608 17 625 15 17 78 18 1581 18 1443 0
1567 -1 1584 -17z"/>
<path d="M125 3193 c-47 -24 -86 -64 -106 -108 -16 -36 -19 -68 -19 -290 0
-146 5 -266 11 -288 6 -21 26 -56 45 -77 97 -107 267 -89 341 37 l28 48 0 270
c0 257 -1 272 -22 310 -27 50 -58 80 -105 100 -48 19 -134 19 -173 -2z"/>
<path d="M4815 2743 c-44 -23 -74 -53 -98 -98 -21 -38 -22 -53 -22 -310 l0
-270 28 -48 c75 -127 248 -144 342 -34 19 22 40 57 45 76 5 20 10 149 10 286
0 220 -3 255 -19 290 -19 43 -78 100 -118 116 -38 14 -135 10 -168 -8z"/>
<path d="M165 1919 c-62 -15 -112 -55 -140 -114 l-26 -53 3 -269 3 -270 28
-41 c39 -60 94 -93 164 -99 80 -7 154 31 198 102 l30 48 3 241 c3 154 0 259
-7 292 -26 115 -143 189 -256 163z"/>
<path d="M4846 1468 c-25 -7 -58 -29 -87 -58 -66 -66 -72 -99 -67 -395 l3
-240 28 -47 c71 -121 234 -142 332 -43 62 62 67 89 63 386 l-3 256 -30 48
c-48 78 -150 118 -239 93z"/>
<path d="M206 638 c-60 -16 -130 -91 -145 -154 -23 -96 16 -184 134 -300 110
-109 280 -183 421 -184 130 0 240 141 205 265 -24 90 -86 142 -193 162 -91 17
-125 39 -176 112 -62 87 -154 124 -246 99z"/>
<path d="M1422 420 c-57 -13 -108 -55 -136 -111 -43 -88 -30 -176 39 -244 60
-60 87 -65 372 -65 249 0 249 0 302 26 90 45 134 140 110 238 -16 67 -85 138
-151 154 -53 13 -482 15 -536 2z"/>
<path d="M2711 420 c-162 -38 -215 -256 -88 -365 22 -19 57 -40 76 -45 20 -5
149 -10 286 -10 279 0 299 4 362 71 41 43 53 77 53 145 0 97 -64 180 -156 203
-49 13 -481 13 -533 1z"/>
<path d="M3988 416 c-57 -20 -85 -42 -115 -87 -55 -84 -39 -204 37 -273 59
-53 90 -57 379 -54 l258 3 48 30 c115 71 132 242 33 331 -62 57 -74 59 -348
61 -196 2 -264 0 -292 -11z"/>
</g>
</svg>
